<svg xmlns="http://www.w3.org/2000/svg" viewBox="0 0 512 512" role="img" aria-label="Yggdrasil">
  <rect width="512" height="512" rx="112" fill="#18171a"/>
  <g fill="none" stroke="#c9a87a" stroke-linecap="round" stroke-linejoin="round">
    <path stroke-width="30" d="M256 404V188m0 68-94-79m94 25 91-83m-91 195-76 74m76-39 70 61"/>
    <path stroke-width="22" d="M256 188c-54 0-98-37-98-83 54 0 98 37 98 83Zm0 14c54 0 98-37 98-83-54 0-98 37-98 83Z"/>
  </g>
  <g fill="#b8956a">
    <circle cx="162" cy="177" r="22"/><circle cx="347" cy="119" r="22"/>
    <circle cx="180" cy="388" r="19"/><circle cx="326" cy="410" r="19"/>
  </g>
</svg>
